<?xml version="1.0" standalone="no"?>
<!DOCTYPE svg PUBLIC "-//W3C//DTD SVG 20010904//EN"
 "http://www.w3.org/TR/2001/REC-SVG-20010904/DTD/svg10.dtd">
<svg version="1.0" xmlns="http://www.w3.org/2000/svg"
 width="260.000000pt" height="260.000000pt" viewBox="0 0 260.000000 260.000000"
 preserveAspectRatio="xMidYMid meet">
<metadata>
Created by potrace 1.11, written by Peter Selinger 2001-2013
</metadata>
<g transform="translate(0.000000,260.000000) scale(0.100000,-0.100000)"
fill="#000000" stroke="none">
<path d="M483 2088 l2 -231 557 -276 c307 -152 558 -278 558 -281 0 -3 -251
-130 -558 -281 l-557 -275 0 -236 0 -236 30 14 c16 8 37 18 45 23 8 4 269 137
580 294 311 157 657 333 770 390 l205 104 1 197 c0 131 -3 199 -10 206 -6 5
-135 71 -286 148 -151 76 -468 237 -705 357 -488 247 -623 315 -629 315 -2 0
-3 -104 -3 -232z"/>
</g>
</svg>
